1.8Hz3min_grf.mot
version=1
nRows=30
nColumns 19
inDegrees=yes
endheader
time	1_ground_force_vx	1_ground_force_vy	1_ground_force_vz	1_ground_force_px	1_ground_force_py	1_ground_force_pz	1_ground_torque_x	1_ground_torque_y	1_ground_torque_z	2_ground_force_vx	2_ground_force_vy	2_ground_force_vz	2_ground_force_px	2_ground_force_py	2_ground_force_pz	2_ground_torque_x	2_ground_torque_y	2_ground_torque_z
            2.502500	          -24.820161	          584.221569	          -36.045182	           -0.272015	            0.006273	           -0.418694	            0.003928	           -0.092454	            0.005704	          -39.300900	          535.757711	           47.636572	           -0.210795	            0.005842	           -0.731170	            0.042106	           -0.574001	           -0.051037
            2.503000	          -25.002468	          580.255160	          -35.924168	           -0.271973	            0.006275	           -0.419121	            0.005239	           -0.121583	            0.007527	          -39.242271	          532.444732	           47.202372	           -0.210801	            0.005842	           -0.731129	            0.043236	           -0.586638	           -0.052007
            2.503500	          -25.414739	          577.911792	          -35.979044	           -0.271916	            0.006274	           -0.418772	            0.012022	           -0.273369	            0.017019	          -39.225717	          527.841533	           47.045161	           -0.210584	            0.005842	           -0.730987	            0.040592	           -0.546226	           -0.048684
            2.504000	          -25.459095	          574.124798	          -35.674175	           -0.271922	            0.006274	           -0.418939	            0.016051	           -0.361959	            0.022491	          -39.126258	          526.186385	           46.522999	           -0.210798	            0.005842	           -0.731266	            0.042943	           -0.577511	           -0.051061
            2.504500	          -25.825460	          571.420969	          -35.730712	           -0.271969	            0.006273	           -0.418730	            0.017420	           -0.385433	            0.024101	          -39.017584	          521.953815	           45.803925	           -0.210705	            0.005843	           -0.731342	            0.039271	           -0.525350	           -0.046102
            2.505000	          -26.008272	          568.356386	          -35.743397	           -0.272057	            0.006273	           -0.418754	            0.017195	           -0.375751	            0.023631	          -38.909321	          517.903438	           45.648646	           -0.210514	            0.005843	           -0.731206	            0.033021	           -0.439529	           -0.038741
            2.505500	          -26.373399	          565.109825	          -35.343700	           -0.271945	            0.006273	           -0.418730	            0.019097	           -0.409186	            0.025592	          -38.945182	          514.775205	           44.933574	           -0.210472	            0.005843	           -0.731070	            0.025669	           -0.339293	           -0.029616
            2.506000	          -26.328181	          561.686857	          -35.862912	           -0.271835	            0.006273	           -0.418736	            0.016388	           -0.349631	            0.022323	          -38.840955	          511.830007	           44.688380	           -0.210533	            0.005843	           -0.731289	            0.024807	           -0.326894	           -0.028541
            2.506500	          -26.465072	          558.802383	          -35.829086	           -0.271815	            0.006273	           -0.418632	            0.019366	           -0.408917	            0.026219	          -38.595508	          508.701237	           44.442471	           -0.210404	            0.005844	           -0.731254	            0.022197	           -0.292562	           -0.025560
            2.507000	          -26.694181	          555.738700	          -36.025081	           -0.272083	            0.006272	           -0.418328	            0.021556	           -0.448771	            0.029091	          -38.676056	          505.019073	           44.100872	           -0.210215	            0.005845	           -0.731332	            0.018933	           -0.247222	           -0.021589
            2.507500	          -26.739319	          552.493652	          -35.993021	           -0.271890	            0.006272	           -0.418456	            0.028955	           -0.598273	            0.038975	          -38.519680	          500.601025	           43.803475	           -0.210058	            0.005844	           -0.731066	            0.019345	           -0.251408	           -0.021999
            2.508000	          -26.921593	          548.346947	          -35.872780	           -0.271971	            0.006273	           -0.418609	            0.035240	           -0.717775	            0.046957	          -38.133000	          497.288393	           43.603776	           -0.210261	            0.005844	           -0.731260	            0.014322	           -0.186778	           -0.016377
            2.508500	          -27.379547	          546.363769	          -35.834285	           -0.271740	            0.006272	           -0.418301	            0.038450	           -0.767279	            0.050323	          -37.840832	          494.160735	           43.076277	           -0.209942	            0.005845	           -0.731115	            0.009455	           -0.123475	           -0.010763
            2.509000	          -27.333046	          544.019901	          -35.752736	           -0.271841	            0.006271	           -0.418048	            0.028983	           -0.576860	            0.037911	          -37.874466	          490.478238	           42.875443	           -0.210243	            0.005844	           -0.731155	            0.006177	           -0.079996	           -0.006993
            2.509500	          -27.194975	          540.414811	          -35.814396	           -0.271780	            0.006270	           -0.418024	            0.031155	           -0.619100	            0.041029	          -37.629877	          487.535054	           42.207837	           -0.210041	            0.005845	           -0.731121	            0.002583	           -0.033463	           -0.002897
            2.510000	          -27.240500	          536.810078	          -35.967305	           -0.271592	            0.006271	           -0.418217	            0.033565	           -0.661452	            0.044319	          -37.287485	          483.486466	           41.770890	           -0.210044	            0.005845	           -0.731111	            0.005151	           -0.066790	           -0.005770
            2.510500	          -27.239470	          534.285315	          -35.748851	           -0.271609	            0.006271	           -0.418117	            0.038711	           -0.759301	            0.050805	          -37.321730	          479.987669	           41.711497	           -0.209803	            0.005845	           -0.731029	            0.005393	           -0.069353	           -0.006027
            2.511000	          -27.422330	          530.860458	          -35.808934	           -0.271672	            0.006271	           -0.418137	            0.044404	           -0.859602	            0.057984	          -36.702915	          477.229309	           41.232101	           -0.210025	            0.005845	           -0.731218	            0.007047	           -0.091625	           -0.007916
            2.511500	          -27.696472	          528.335960	          -35.635649	           -0.271630	            0.006269	           -0.417761	            0.046353	           -0.884228	            0.059640	          -36.457640	          474.101817	           40.610766	           -0.210017	            0.005845	           -0.731272	           -0.001571	            0.020424	            0.001749
            2.512000	          -27.741869	          524.010165	          -35.791658	           -0.271813	            0.006271	           -0.418109	            0.048540	           -0.916861	            0.062625	          -36.023485	          470.605549	           40.316534	           -0.209901	            0.005846	           -0.731318	           -0.005956	            0.077806	            0.006666
            2.512500	          -27.694538	          521.484624	          -35.389887	           -0.271554	            0.006270	           -0.417934	            0.045960	           -0.865422	            0.058731	          -35.867774	          466.371641	           40.019794	           -0.209985	            0.005844	           -0.731037	           -0.007792	            0.101319	            0.008694
            2.513000	          -27.694665	          519.682815	          -35.581040	           -0.271512	            0.006268	           -0.417534	            0.048692	           -0.913694	            0.062558	          -35.762375	          463.059501	           39.397861	           -0.209832	            0.005845	           -0.731160	           -0.010535	            0.136404	            0.011605
            2.513500	          -27.601473	          515.174981	          -35.325456	           -0.271546	            0.006270	           -0.417803	            0.049043	           -0.915368	            0.062767	          -35.098669	          460.853397	           39.014273	           -0.210045	            0.005845	           -0.731192	           -0.007540	            0.099003	            0.008381
            2.514000	          -27.280617	          512.291775	          -35.567903	           -0.271670	            0.006270	           -0.418002	            0.051443	           -0.966031	            0.067071	          -34.843959	          455.146809	           38.665308	           -0.210021	            0.005844	           -0.730862	           -0.010428	            0.136219	            0.011572
            2.514500	          -27.325883	          509.767850	          -35.532751	           -0.271396	            0.006269	           -0.417691	            0.056345	           -1.051127	            0.073268	          -34.411215	          452.019491	           38.184677	           -0.209911	            0.005844	           -0.730900	           -0.011522	            0.151346	            0.012785
            2.515000	          -27.186691	          506.881660	          -35.086901	           -0.271571	            0.006269	           -0.417720	            0.059768	           -1.114341	            0.077136	          -34.024679	          448.708031	           37.656482	           -0.209630	            0.005845	           -0.730945	           -0.015506	            0.204489	            0.017161
            2.515500	          -27.186051	          503.997212	          -35.053416	           -0.271600	            0.006268	           -0.417532	            0.058873	           -1.091435	            0.075910	          -33.733778	          445.948153	           37.271081	           -0.209878	            0.005845	           -0.731074	           -0.018808	            0.248635	            0.020780
            2.516000	          -27.138329	          500.569980	          -34.563797	           -0.271562	            0.006268	           -0.417395	            0.061692	           -1.137920	            0.078572	          -33.019914	          442.821682	           36.837260	           -0.209953	            0.005844	           -0.730961	           -0.027323	            0.366415	            0.030481
            2.516500	          -26.816658	          496.964532	          -34.534201	           -0.271503	            0.006268	           -0.417518	            0.058977	           -1.092967	            0.075951	          -32.444588	          439.142054	           36.448454	           -0.209917	            0.005844	           -0.730894	           -0.018942	            0.256389	            0.021280
            2.517000	          -26.448671	          493.898937	          -34.273116	           -0.271643	            0.006268	           -0.417430	            0.062927	           -1.175083	            0.081542	          -32.385937	          435.828908	           36.061183	           -0.210058	            0.005844	           -0.730982	           -0.022424	            0.301762	            0.024968
